<svg width="1200" height="1000" viewBox="0 0 1200 1000" fill="none" xmlns="http://www.w3.org/2000/svg">
<rect width="1200" height="1000" fill="#1F2729"/>
<path d="M215.69 412.833H83.5427L326.443 264.404V348.913L215.69 412.833ZM326.443 561.75L83.5427 412.833H215.69L326.443 476.388V561.75Z" fill="#F3C438"/>
<path d="M83 462.373L325.9 611.005H193.752L83 547.085V462.373ZM193.752 611.005H325.9L83 759.921V674.641L193.752 611.005Z" fill="#2ECBFE"/>
<path d="M433.904 409.537C429.052 408.458 424.359 406.758 419.941 404.479C415.604 402.239 411.587 399.425 408 396.114L419.202 382.303C423.94 385.994 429.178 388.993 434.76 391.212C439.602 393.131 444.759 394.134 449.968 394.169C455.789 394.534 461.603 393.338 466.809 390.706C468.587 389.626 470.044 388.089 471.029 386.256C472.014 384.422 472.491 382.359 472.41 380.279C472.505 378.956 472.274 377.629 471.739 376.416C471.203 375.202 470.379 374.137 469.337 373.315C467.041 371.652 464.368 370.583 461.558 370.203C458.525 369.697 454.246 369.191 448.762 368.763H447.167H445.611H444.133C438.762 368.421 433.442 367.508 428.264 366.04C423.977 364.723 420.201 362.114 417.451 358.57C414.348 353.997 412.844 348.525 413.173 343.008C412.939 337.074 414.381 331.195 417.335 326.045C420.23 321.276 424.619 317.597 429.82 315.579C436.436 313.133 443.462 311.984 450.512 312.194C455.318 312.174 460.114 312.644 464.826 313.595C469.309 314.479 473.679 315.862 477.855 317.719C482.081 319.583 486.097 321.892 489.835 324.605L478.439 338.339C474.004 335.44 469.221 333.113 464.203 331.414C459.808 329.904 455.198 329.115 450.551 329.079C445.508 328.732 440.474 329.883 436.082 332.386C434.494 333.468 433.215 334.944 432.37 336.67C431.524 338.396 431.141 340.311 431.259 342.229C431.186 343.358 431.397 344.487 431.873 345.514C432.348 346.54 433.073 347.431 433.982 348.104C436.06 349.485 438.43 350.364 440.905 350.672C443.667 351.1 447.634 351.489 452.768 351.8H453.935H455.18H455.724C455.917 351.763 456.115 351.763 456.308 351.8C462.117 352.082 467.88 352.982 473.499 354.485C478.22 355.861 482.385 358.693 485.401 362.577C488.946 367.668 490.648 373.817 490.224 380.007C490.447 386.048 488.906 392.024 485.79 397.204C482.529 401.965 477.825 405.552 472.371 407.436C465.146 409.929 457.529 411.089 449.89 410.86C444.529 411.013 439.167 410.57 433.904 409.537Z" fill="#FFFCF4"/>
<path d="M530.947 406.23C524.726 402.959 519.691 397.814 516.556 391.523C513.071 384.246 511.364 376.245 511.577 368.18V357.247C511.345 348.862 512.979 340.529 516.361 332.853C519.246 326.351 524.086 320.911 530.208 317.291C536.903 313.602 544.465 311.775 552.106 311.999C559.43 311.778 566.635 313.89 572.681 318.03C578.659 322.415 583.196 328.484 585.711 335.46C588.883 344.18 590.4 353.417 590.184 362.694V369.464H525.268V354.096H572.175C572.025 347.494 569.853 341.098 565.952 335.771C564.292 333.652 562.155 331.955 559.715 330.819C557.275 329.683 554.601 329.14 551.911 329.235C548.784 329.067 545.659 329.613 542.775 330.833C539.89 332.054 537.322 333.915 535.264 336.277C531.013 342.028 528.933 349.098 529.391 356.236V368.491C529.169 371.817 529.612 375.154 530.694 378.307C531.776 381.46 533.475 384.366 535.692 386.855C538.086 389.076 540.906 390.787 543.982 391.884C547.058 392.981 550.325 393.441 553.584 393.235C557.499 393.216 561.372 392.422 564.98 390.901C568.722 389.394 572.151 387.204 575.093 384.442L587.656 396.698C583.012 401.193 577.58 404.794 571.631 407.319C565.988 409.803 559.904 411.126 553.739 411.21C545.851 411.42 538.029 409.711 530.947 406.23V406.23Z" fill="#FFFCF4"/>
<path d="M620.406 403.857C614.545 398.955 611.615 391.485 611.615 381.447C611.327 377.51 611.897 373.557 613.287 369.862C614.678 366.167 616.854 362.818 619.667 360.049C625.034 355.276 633.163 352.89 644.054 352.89H671.28L672.564 368.102H644.015C640.038 367.789 636.086 368.968 632.93 371.409C631.638 372.723 630.643 374.299 630.012 376.031C629.381 377.763 629.13 379.609 629.274 381.447C629.118 383.518 629.481 385.595 630.33 387.49C631.179 389.386 632.487 391.039 634.136 392.302C638.593 394.98 643.768 396.217 648.955 395.842C654.448 396.117 659.943 395.325 665.135 393.508C666.662 393.001 667.995 392.033 668.949 390.737C669.904 389.441 670.433 387.881 670.463 386.271L672.408 399.81C670.803 402.348 668.699 404.532 666.224 406.23C663.652 408.022 660.78 409.34 657.745 410.121C654.196 411.001 650.549 411.42 646.893 411.366C635.017 411.262 626.188 408.759 620.406 403.857ZM670.58 348.805C670.899 343.427 669.082 338.142 665.524 334.098C663.616 332.292 661.358 330.898 658.889 330.001C656.42 329.104 653.793 328.724 651.172 328.885C647.335 328.85 643.516 329.415 639.853 330.558C636.34 331.644 633.028 333.3 630.052 335.46L616.244 326.006C620.137 321.457 625.094 317.942 630.674 315.774C636.995 313.262 643.748 312.02 650.549 312.116C657.594 311.959 664.58 313.423 670.969 316.396C676.459 319.044 680.996 323.324 683.96 328.651C687.085 334.647 688.612 341.347 688.394 348.104V409.965H670.425L670.58 348.805Z" fill="#FFFCF4"/>
<path d="M709.863 313.595H753.27V330.558H709.863V313.595ZM725.227 403.857C721.231 398.338 719.303 391.59 719.782 384.793V285.583H738.684V385.026C738.562 386.932 739.053 388.827 740.085 390.434C740.533 391.04 741.12 391.53 741.797 391.862C742.474 392.193 743.221 392.358 743.974 392.341H753.076V410.315H742.107C738.972 410.57 735.82 410.123 732.88 409.005C729.94 407.888 727.285 406.129 725.11 403.857H725.227Z" fill="#FFFCF4"/>
<path d="M771.706 313.595H815.074V330.558H771.706V313.595ZM787.031 403.857C783.049 398.333 781.135 391.585 781.625 384.793V285.583H800.528V385.026C800.405 386.932 800.896 388.827 801.928 390.434C802.369 391.048 802.955 391.543 803.634 391.875C804.312 392.208 805.062 392.368 805.817 392.341H814.919V410.315H803.989C800.861 410.559 797.718 410.106 794.786 408.989C791.854 407.872 789.205 406.119 787.031 403.857V403.857Z" fill="#FFFCF4"/>
<path d="M859.959 385.026C859.833 386.949 860.368 388.857 861.476 390.434C861.993 391.072 862.654 391.577 863.405 391.908C864.155 392.24 864.974 392.388 865.793 392.34H874.7V410.315H863.576C860.48 410.496 857.382 409.99 854.504 408.833C851.626 407.676 849.039 405.897 846.929 403.623C842.698 398.294 840.591 391.585 841.017 384.793V275H859.959V385.026Z" fill="#FFFCF4"/>
<path d="M912.623 406.23C906.383 402.972 901.332 397.825 898.193 391.523C894.708 384.246 893.002 376.246 893.214 368.18V357.247C892.982 348.862 894.616 340.529 897.998 332.853C900.883 326.351 905.724 320.911 911.845 317.291C918.54 313.602 926.102 311.775 933.743 311.999C941.067 311.773 948.274 313.885 954.318 318.03C960.297 322.415 964.833 328.484 967.348 335.46C970.534 344.178 972.064 353.414 971.86 362.694V369.464H906.944V354.096H953.851C953.746 347.511 951.629 341.116 947.784 335.771C946.124 333.652 943.987 331.955 941.547 330.819C939.106 329.683 936.432 329.14 933.743 329.235C930.615 329.067 927.491 329.613 924.606 330.833C921.722 332.054 919.153 333.915 917.096 336.277C912.845 342.028 910.765 349.098 911.223 356.236V368.491C911.001 371.817 911.444 375.154 912.526 378.307C913.607 381.46 915.306 384.366 917.523 386.855C919.917 389.076 922.738 390.787 925.814 391.884C928.889 392.981 932.156 393.441 935.415 393.235C939.331 393.216 943.203 392.422 946.811 390.901C950.554 389.394 953.983 387.204 956.924 384.442L969.332 396.698C964.688 401.193 959.255 404.794 953.307 407.319C947.664 409.803 941.58 411.126 935.415 411.21C927.526 411.431 919.701 409.721 912.623 406.23V406.23Z" fill="#FFFCF4"/>
<path d="M427.15 558.678C421.096 555.485 416.178 550.498 413.07 544.4C409.582 537.398 407.846 529.655 408.013 521.834V505.999C407.829 498.214 409.566 490.504 413.07 483.551C416.226 477.473 421.204 472.535 427.305 469.428C434.29 465.997 442.008 464.328 449.786 464.564C454.564 464.528 459.326 465.13 463.944 466.354C468.159 467.48 472.173 469.252 475.846 471.606C479.269 473.81 482.25 476.634 484.636 479.932L471.023 492.188C468.382 489.155 465.118 486.726 461.455 485.068C457.887 483.401 453.997 482.538 450.059 482.539C446.966 482.355 443.868 482.802 440.953 483.852C438.038 484.902 435.366 486.533 433.101 488.647C430.997 490.981 429.381 493.71 428.346 496.677C427.311 499.643 426.877 502.786 427.072 505.922V521.834C426.86 525.022 427.28 528.22 428.308 531.244C429.336 534.269 430.951 537.061 433.062 539.458C435.305 541.624 437.975 543.296 440.902 544.368C443.83 545.44 446.948 545.888 450.059 545.683C454.105 545.717 458.102 544.797 461.727 542.999C465.427 541.156 468.659 538.495 471.179 535.218L484.792 548.407C482.353 551.654 479.349 554.435 475.924 556.616C472.236 558.94 468.207 560.673 463.983 561.752C459.398 562.941 454.678 563.529 449.942 563.502C442.063 563.802 434.232 562.145 427.15 558.678V558.678Z" fill="#FFFCF4"/>
<path d="M505.368 465.965H524.27V562.219H505.368V465.965ZM552.041 484.134C549.231 483.03 546.231 482.488 543.212 482.539C540.669 482.385 538.122 482.747 535.722 483.603C533.323 484.459 531.121 485.791 529.249 487.519C527.537 489.361 526.217 491.532 525.368 493.899C524.519 496.266 524.159 498.781 524.309 501.292L522.365 482.734C525.04 477.344 529.059 472.734 534.033 469.35C538.61 466.205 544.039 464.535 549.591 464.565C553.639 464.501 557.667 465.146 561.493 466.471C564.959 467.672 568.137 469.58 570.828 472.073L558.498 488.764C556.772 486.682 554.533 485.087 552.003 484.134H552.041Z" fill="#FFFCF4"/>
<path d="M601.127 558.6C594.895 555.332 589.847 550.187 586.697 543.894C583.225 536.613 581.532 528.613 581.757 520.55V509.695C581.532 501.314 583.152 492.986 586.502 485.301C589.389 478.788 594.245 473.345 600.388 469.739C607.067 466.044 614.618 464.217 622.247 464.448C629.571 464.221 636.778 466.333 642.822 470.478C648.811 474.853 653.35 480.925 655.852 487.908C659.038 496.626 660.568 505.862 660.364 515.142V521.834H595.448V506.622H642.55C642.414 500.036 640.285 493.647 636.443 488.297C634.786 486.175 632.649 484.477 630.208 483.341C627.768 482.204 625.093 481.663 622.402 481.761C619.275 481.593 616.151 482.139 613.266 483.359C610.382 484.58 607.813 486.441 605.755 488.803C601.498 494.497 599.378 501.506 599.765 508.606V520.861C599.544 524.187 599.987 527.524 601.069 530.677C602.15 533.83 603.849 536.736 606.066 539.225C608.46 541.447 611.281 543.158 614.357 544.255C617.432 545.352 620.699 545.811 623.958 545.605C627.874 545.59 631.748 544.797 635.354 543.271C639.106 541.765 642.538 539.56 645.467 536.774L657.913 549.224C653.266 553.733 647.818 557.335 641.85 559.845C636.208 562.332 630.123 563.655 623.958 563.736C616.043 563.915 608.204 562.152 601.127 558.6V558.6Z" fill="#FFFCF4"/>
<path d="M690.507 556.227C684.621 551.325 681.678 543.855 681.678 533.817C681.389 529.88 681.96 525.927 683.35 522.232C684.74 518.537 686.917 515.189 689.729 512.419C695.149 507.62 703.278 505.234 714.116 505.26H741.343L742.626 520.472H714.078C710.1 520.159 706.149 521.338 702.992 523.779C701.694 525.089 700.695 526.664 700.064 528.397C699.433 530.13 699.184 531.979 699.336 533.817C699.173 535.889 699.533 537.968 700.383 539.865C701.232 541.762 702.544 543.414 704.198 544.672C708.639 547.357 713.804 548.594 718.978 548.212C724.472 548.491 729.967 547.698 735.159 545.878C736.686 545.371 738.019 544.403 738.973 543.107C739.927 541.811 740.456 540.251 740.487 538.641L742.432 552.181C740.83 554.708 738.741 556.89 736.287 558.6C733.711 560.386 730.841 561.703 727.807 562.491C724.259 563.372 720.612 563.79 716.956 563.736C705.248 563.58 696.341 561.129 690.507 556.227ZM740.643 501.175C740.809 498.511 740.448 495.841 739.581 493.317C738.713 490.794 737.356 488.466 735.586 486.468C733.689 484.66 731.437 483.263 728.974 482.366C726.511 481.469 723.889 481.09 721.273 481.255C717.446 481.253 713.641 481.844 709.994 483.006C706.492 484.092 703.194 485.748 700.231 487.908L686.423 478.454C690.294 473.898 695.241 470.381 700.814 468.222C707.149 465.71 713.915 464.468 720.729 464.564C727.781 464.371 734.782 465.809 741.187 468.766C746.692 471.393 751.235 475.679 754.178 481.022C757.303 487.017 758.83 493.717 758.612 500.475V562.335H740.643V501.175Z" fill="#FFFCF4"/>
<path d="M779.965 465.965H823.333V482.928H779.965V465.965ZM795.29 556.227C791.308 550.704 789.394 543.955 789.884 537.163V437.953H808.787V537.396C808.664 539.302 809.155 541.197 810.187 542.804C810.651 543.441 811.269 543.95 811.983 544.283C812.698 544.617 813.484 544.764 814.271 544.711H823.333V562.724H812.404C809.247 562.986 806.072 562.539 803.111 561.415C800.15 560.291 797.478 558.518 795.29 556.227V556.227Z" fill="#FFFCF4"/>
<path d="M849.315 427.37H868.14V446.279H849.237L849.315 427.37ZM849.315 465.965H868.14V562.218H849.237L849.315 465.965Z" fill="#FFFCF4"/>
<path d="M953.709 465.965H973.468L937.295 562.218H923.021L886.888 465.965H906.607L930.178 534.673L953.709 465.965Z" fill="#FFFCF4"/>
<path d="M1006.61 558.6C1000.39 555.33 995.351 550.185 992.215 543.894C988.73 536.617 987.024 528.616 987.237 520.55V509.695C987.005 501.31 988.639 492.978 992.021 485.301C994.906 478.799 999.746 473.36 1005.87 469.739C1012.53 466.118 1020.03 464.332 1027.61 464.564C1034.93 464.343 1042.14 466.455 1048.18 470.595C1054.16 474.98 1058.7 481.048 1061.21 488.025C1064.4 496.743 1065.93 505.979 1065.73 515.259V521.834H1000.97V506.622H1047.87C1047.77 500.037 1045.65 493.642 1041.81 488.297C1040.15 486.127 1037.99 484.387 1035.52 483.223C1033.05 482.058 1030.34 481.504 1027.61 481.605C1024.48 481.437 1021.36 481.984 1018.47 483.204C1015.59 484.424 1013.02 486.286 1010.96 488.647C1006.71 494.398 1004.63 501.468 1005.09 508.606V520.861C1004.87 524.187 1005.31 527.524 1006.39 530.677C1007.47 533.83 1009.17 536.736 1011.39 539.225C1013.78 541.446 1016.6 543.158 1019.68 544.255C1022.76 545.352 1026.02 545.811 1029.28 545.605C1033.2 545.586 1037.07 544.793 1040.68 543.271C1044.43 541.765 1047.86 539.56 1050.79 536.774L1063.2 549.224C1058.56 553.732 1053.13 557.334 1047.17 559.845C1041.53 562.329 1035.45 563.652 1029.28 563.736C1021.42 563.879 1013.64 562.117 1006.61 558.6V558.6Z" fill="#FFFCF4"/>
<path d="M427.15 711.056C421.096 707.863 416.178 702.875 413.07 696.777C409.582 689.776 407.846 682.032 408.013 674.212V658.377C407.829 650.592 409.566 642.882 413.07 635.928C416.239 629.86 421.213 624.926 427.305 621.805C434.29 618.375 442.008 616.706 449.786 616.942C454.564 616.906 459.326 617.508 463.944 618.732C468.159 619.858 472.173 621.63 475.846 623.984C479.269 626.187 482.25 629.011 484.636 632.31L471.023 644.565C468.382 641.532 465.118 639.104 461.455 637.446C457.887 635.779 453.997 634.916 450.059 634.917C446.966 634.733 443.868 635.179 440.953 636.229C438.038 637.279 435.366 638.911 433.101 641.025C430.997 643.358 429.381 646.088 428.346 649.054C427.311 652.02 426.877 655.163 427.072 658.299V674.212C426.86 677.399 427.28 680.597 428.308 683.622C429.336 686.647 430.951 689.438 433.062 691.836C435.305 694.001 437.975 695.673 440.902 696.745C443.83 697.817 446.948 698.266 450.059 698.061C454.105 698.094 458.102 697.175 461.727 695.377C465.427 693.534 468.659 690.873 471.179 687.595L484.792 700.784C482.353 704.032 479.349 706.813 475.924 708.994C472.236 711.318 468.207 713.05 463.983 714.129C459.398 715.319 454.678 715.907 449.942 715.88C442.063 716.18 434.232 714.522 427.15 711.056V711.056Z" fill="#FFFCF4"/>
<path d="M520.847 711.056C514.937 707.809 510.18 702.806 507.234 696.738C503.956 689.691 502.345 681.983 502.528 674.212V658.649C502.312 650.93 503.91 643.267 507.195 636.278C510.144 630.242 514.903 625.278 520.808 622.078C527.488 618.883 534.797 617.225 542.201 617.225C549.604 617.225 556.914 618.883 563.593 622.078C569.487 625.28 574.233 630.245 577.167 636.278C580.452 643.267 582.051 650.93 581.835 658.649V674.212C582.058 681.97 580.459 689.672 577.167 696.699C574.223 702.735 569.48 707.71 563.593 710.939C556.921 714.158 549.608 715.83 542.201 715.83C534.793 715.83 527.481 714.158 520.808 710.939L520.847 711.056ZM557.603 691.603C561.485 686.654 563.409 680.45 563.01 674.173V658.221C563.416 651.968 561.489 645.785 557.603 640.869C553.457 636.946 547.967 634.759 542.259 634.759C536.552 634.759 531.061 636.946 526.915 640.869C523.015 645.78 521.075 651.963 521.47 658.221V674.212C521.085 680.493 523.023 686.697 526.915 691.642C531.024 695.637 536.529 697.872 542.259 697.872C547.989 697.872 553.494 695.637 557.603 691.642V691.603Z" fill="#FFFCF4"/>
<path d="M621.274 711.678C616.197 708.481 612.231 703.793 609.917 698.255C607.179 691.557 605.855 684.364 606.028 677.13V655.887C605.869 648.615 607.192 641.388 609.917 634.644C612.132 629.139 616.007 624.461 621.002 621.261C626.259 618.078 632.324 616.483 638.466 616.67C643.968 616.641 649.364 618.179 654.024 621.105C658.86 624.215 662.801 628.533 665.459 633.633L663.514 653.28C663.614 649.665 662.854 646.078 661.297 642.815C659.888 639.98 657.631 637.655 654.841 636.162C651.672 634.568 648.156 633.793 644.611 633.905C641.912 633.744 639.211 634.184 636.702 635.193C634.193 636.202 631.94 637.756 630.104 639.741C626.416 644.389 624.574 650.236 624.931 656.159V677.13C624.561 682.983 626.408 688.761 630.104 693.314C631.967 695.255 634.229 696.767 636.734 697.748C639.239 698.729 641.926 699.154 644.611 698.995C648.17 699.109 651.696 698.291 654.841 696.621C657.642 695.071 659.897 692.693 661.297 689.813C662.858 686.481 663.617 682.83 663.514 679.153L664.798 699.462C662.864 704.271 659.599 708.428 655.385 711.445C650.69 714.737 645.053 716.416 639.322 716.23C633 716.418 626.751 714.841 621.274 711.678V711.678ZM663.514 579.748H682.417V714.596H663.514V579.748Z" fill="#FFFCF4"/>
<path d="M727.769 710.978C721.537 707.71 716.489 702.565 713.339 696.271C709.867 688.991 708.174 680.99 708.399 672.928V662.073C708.155 653.69 709.776 645.358 713.144 637.679C716.031 631.166 720.887 625.723 727.03 622.117C733.709 618.422 741.26 616.594 748.889 616.825C756.213 616.599 763.42 618.711 769.464 622.856C775.442 627.241 779.979 633.31 782.494 640.286C785.68 649.004 787.21 658.24 787.006 667.52V674.212H722.09V658.999H768.997C768.892 652.415 766.775 646.02 762.93 640.675C761.27 638.555 759.133 636.859 756.693 635.723C754.252 634.587 751.578 634.044 748.889 634.138C745.761 633.97 742.637 634.517 739.752 635.737C736.868 636.957 734.299 638.819 732.242 641.18C727.991 646.932 725.91 654.002 726.368 661.139V673.395C726.147 676.721 726.59 680.058 727.672 683.211C728.753 686.364 730.452 689.269 732.669 691.758C735.063 693.98 737.884 695.691 740.96 696.788C744.035 697.885 747.302 698.345 750.561 698.139C754.477 698.123 758.351 697.33 761.957 695.804C765.709 694.299 769.141 692.094 772.07 689.307L784.516 701.757C779.869 706.266 774.421 709.868 768.453 712.378C762.811 714.865 756.726 716.188 750.561 716.269C742.646 716.394 734.82 714.577 727.769 710.978V710.978Z" fill="#FFFCF4"/>
</svg>
