<?xml version="1.0" encoding="UTF-8" standalone="no" ?>
<svg
  width="245.68684"
  height="123.879"
  viewBox="0 0 982.74738 495.51599"
  fill="none"
  version="1.1"
  id="svg44"
  xmlns="http://www.w3.org/2000/svg"
>
  <defs id="defs48" />
  <path
    d="M 132.69,148.429 H 0.5427 L 243.443,0 V 84.509 Z M 243.443,297.346 0.5427,148.429 H 132.69 l 110.753,63.555 z"
    fill="#f3c438"
    id="path2"
  />
  <path
    d="M 0,197.969 242.9,346.601 H 110.752 L 0,282.681 Z M 110.752,346.601 H 242.9 L 0,495.517 v -85.28 z"
    fill="#2ecbfe"
    id="path4"
  />
  <path
    d="m 350.904,145.133 c -4.852,-1.079 -9.545,-2.779 -13.963,-5.058 -4.337,-2.24 -8.354,-5.054 -11.941,-8.365 l 11.202,-13.811 c 4.738,3.691 9.976,6.69 15.558,8.909 4.842,1.919 9.999,2.922 15.208,2.957 5.821,0.365 11.635,-0.831 16.841,-3.463 1.778,-1.08 3.235,-2.617 4.22,-4.45 0.985,-1.834 1.462,-3.897 1.381,-5.977 0.095,-1.323 -0.136,-2.65 -0.671,-3.863 -0.536,-1.214 -1.36,-2.279 -2.402,-3.101 -2.296,-1.663 -4.969,-2.732 -7.779,-3.112 -3.033,-0.506 -7.312,-1.012 -12.796,-1.44 h -1.595 -1.556 -1.478 c -5.371,-0.342 -10.691,-1.255 -15.869,-2.723 -4.287,-1.317 -8.063,-3.926 -10.813,-7.47 -3.103,-4.573 -4.607,-10.045 -4.278,-15.562 -0.234,-5.934 1.208,-11.813 4.162,-16.963 2.895,-4.769 7.284,-8.448 12.485,-10.466 6.616,-2.446 13.642,-3.595 20.692,-3.385 4.806,-0.02 9.602,0.45 14.314,1.401 4.483,0.884 8.853,2.267 13.029,4.124 4.226,1.864 8.242,4.173 11.98,6.886 l -11.396,13.734 c -4.435,-2.899 -9.218,-5.226 -14.236,-6.925 -4.395,-1.51 -9.005,-2.299 -13.652,-2.335 -5.043,-0.347 -10.077,0.804 -14.469,3.307 -1.588,1.082 -2.867,2.558 -3.712,4.284 -0.846,1.726 -1.229,3.641 -1.111,5.559 -0.073,1.129 0.138,2.258 0.614,3.285 0.475,1.026 1.2,1.917 2.109,2.59 2.078,1.381 4.448,2.26 6.923,2.568 2.762,0.428 6.729,0.817 11.863,1.128 h 1.167 1.245 0.544 c 0.193,-0.037 0.391,-0.037 0.584,0 5.809,0.282 11.572,1.182 17.191,2.685 4.721,1.376 8.886,4.208 11.902,8.092 3.545,5.091 5.247,11.24 4.823,17.43 0.223,6.041 -1.318,12.017 -4.434,17.197 -3.261,4.761 -7.965,8.348 -13.419,10.232 -7.225,2.493 -14.842,3.653 -22.481,3.424 -5.361,0.153 -10.723,-0.29 -15.986,-1.323 z"
    fill="#fffff8"
    id="path6"
  />
  <path
    d="m 447.947,141.826 c -6.221,-3.271 -11.256,-8.416 -14.391,-14.707 -3.485,-7.277 -5.192,-15.278 -4.979,-23.343 V 92.843 c -0.232,-8.385 1.402,-16.718 4.784,-24.394 2.885,-6.502 7.725,-11.942 13.847,-15.562 6.695,-3.689 14.257,-5.516 21.898,-5.292 7.324,-0.221 14.529,1.891 20.575,6.031 5.978,4.385 10.515,10.454 13.03,17.43 3.172,8.72 4.689,17.957 4.473,27.234 v 6.77 H 442.268 V 89.692 h 46.907 c -0.15,-6.602 -2.322,-12.998 -6.223,-18.325 -1.66,-2.119 -3.797,-3.816 -6.237,-4.952 -2.44,-1.136 -5.114,-1.679 -7.804,-1.584 -3.127,-0.168 -6.252,0.378 -9.136,1.598 -2.885,1.221 -5.453,3.082 -7.511,5.444 -4.251,5.751 -6.331,12.821 -5.873,19.959 v 12.255 c -0.222,3.326 0.221,6.663 1.303,9.816 1.082,3.153 2.781,6.059 4.998,8.548 2.394,2.221 5.214,3.932 8.29,5.029 3.076,1.097 6.343,1.557 9.602,1.351 3.915,-0.019 7.788,-0.813 11.396,-2.334 3.742,-1.507 7.171,-3.697 10.113,-6.459 l 12.563,12.256 c -4.644,4.495 -10.076,8.096 -16.025,10.621 -5.643,2.484 -11.727,3.807 -17.892,3.891 -7.888,0.21 -15.71,-1.499 -22.792,-4.98 z"
    fill="#fffff8"
    id="path8"
  />
  <path
    d="m 537.406,139.453 c -5.861,-4.902 -8.791,-12.372 -8.791,-22.41 -0.288,-3.937 0.282,-7.89 1.672,-11.585 1.391,-3.695 3.567,-7.044 6.38,-9.813 5.367,-4.773 13.496,-7.159 24.387,-7.159 h 27.226 l 1.284,15.212 h -28.549 c -3.977,-0.313 -7.929,0.866 -11.085,3.307 -1.292,1.314 -2.287,2.89 -2.918,4.622 -0.631,1.732 -0.882,3.578 -0.738,5.416 -0.156,2.071 0.207,4.148 1.056,6.043 0.849,1.896 2.157,3.549 3.806,4.812 4.457,2.678 9.632,3.915 14.819,3.54 5.493,0.275 10.988,-0.517 16.18,-2.334 1.527,-0.507 2.86,-1.475 3.814,-2.771 0.955,-1.296 1.484,-2.856 1.514,-4.466 l 1.945,13.539 c -1.605,2.538 -3.709,4.722 -6.184,6.42 -2.572,1.792 -5.444,3.11 -8.479,3.891 -3.549,0.88 -7.196,1.299 -10.852,1.245 -11.876,-0.104 -20.705,-2.607 -26.487,-7.509 z M 587.58,84.401 c 0.319,-5.378 -1.498,-10.663 -5.056,-14.707 -1.908,-1.806 -4.166,-3.2 -6.635,-4.097 -2.469,-0.897 -5.096,-1.277 -7.717,-1.116 -3.837,-0.035 -7.656,0.53 -11.319,1.673 -3.513,1.086 -6.825,2.742 -9.801,4.902 l -13.808,-9.454 c 3.893,-4.549 8.85,-8.064 14.43,-10.232 6.321,-2.512 13.074,-3.754 19.875,-3.658 7.045,-0.157 14.031,1.307 20.42,4.28 5.49,2.648 10.027,6.928 12.991,12.255 3.125,5.996 4.652,12.696 4.434,19.453 v 61.861 h -17.969 z"
    fill="#fffff8"
    id="path10"
  />
  <path
    d="m 626.863,49.191 h 43.407 v 16.963 h -43.407 z m 15.364,90.262 c -3.996,-5.519 -5.924,-12.267 -5.445,-19.064 v -99.21 h 18.902 v 99.443 c -0.122,1.906 0.369,3.801 1.401,5.408 0.448,0.606 1.035,1.096 1.712,1.428 0.677,0.331 1.424,0.496 2.177,0.479 h 9.102 v 17.974 h -10.969 c -3.135,0.255 -6.287,-0.192 -9.227,-1.31 -2.94,-1.117 -5.595,-2.876 -7.77,-5.148 z"
    fill="#fffff8"
    id="path12"
  />
  <path
    d="m 688.706,49.191 h 43.368 v 16.963 h -43.368 z m 15.325,90.262 c -3.982,-5.524 -5.896,-12.272 -5.406,-19.064 v -99.21 h 18.903 v 99.443 c -0.123,1.906 0.368,3.801 1.4,5.408 0.441,0.614 1.027,1.109 1.706,1.441 0.678,0.333 1.428,0.493 2.183,0.466 h 9.102 v 17.974 h -10.93 c -3.128,0.244 -6.271,-0.209 -9.203,-1.326 -2.932,-1.117 -5.581,-2.87 -7.755,-5.132 z"
    fill="#fffff8"
    id="path14"
  />
  <path
    d="m 776.959,120.622 c -0.126,1.923 0.409,3.831 1.517,5.408 0.517,0.638 1.178,1.143 1.929,1.474 0.75,0.332 1.569,0.48 2.388,0.432 h 8.907 v 17.975 h -11.124 c -3.096,0.181 -6.194,-0.325 -9.072,-1.482 -2.878,-1.157 -5.465,-2.936 -7.575,-5.21 -4.231,-5.329 -6.338,-12.038 -5.912,-18.83 V 10.596 h 18.942 z"
    fill="#fffff8"
    id="path16"
  />
  <path
    d="m 829.623,141.826 c -6.24,-3.258 -11.291,-8.405 -14.43,-14.707 -3.485,-7.277 -5.191,-15.277 -4.979,-23.343 V 92.843 c -0.232,-8.385 1.402,-16.718 4.784,-24.394 2.885,-6.502 7.726,-11.942 13.847,-15.562 6.695,-3.689 14.257,-5.516 21.898,-5.292 7.324,-0.226 14.531,1.886 20.575,6.031 5.979,4.385 10.515,10.454 13.03,17.43 3.186,8.718 4.716,17.954 4.512,27.234 v 6.77 H 823.944 V 89.692 h 46.907 c -0.105,-6.585 -2.222,-12.98 -6.067,-18.325 -1.66,-2.119 -3.797,-3.816 -6.237,-4.952 -2.441,-1.136 -5.115,-1.679 -7.804,-1.584 -3.128,-0.168 -6.252,0.378 -9.137,1.598 -2.884,1.221 -5.453,3.082 -7.51,5.444 -4.251,5.751 -6.331,12.821 -5.873,19.959 v 12.255 c -0.222,3.326 0.221,6.663 1.303,9.816 1.081,3.153 2.78,6.059 4.997,8.548 2.394,2.221 5.215,3.932 8.291,5.029 3.075,1.097 6.342,1.557 9.601,1.351 3.916,-0.019 7.788,-0.813 11.396,-2.334 3.743,-1.507 7.172,-3.697 10.113,-6.459 l 12.408,12.256 c -4.644,4.495 -10.077,8.096 -16.025,10.621 -5.643,2.484 -11.727,3.807 -17.892,3.891 -7.889,0.221 -15.714,-1.489 -22.792,-4.98 z"
    fill="#fffff8"
    id="path18"
  />
  <path
    d="m 344.15,294.274 c -6.054,-3.193 -10.972,-8.18 -14.08,-14.278 -3.488,-7.002 -5.224,-14.745 -5.057,-22.566 v -15.835 c -0.184,-7.785 1.553,-15.495 5.057,-22.448 3.156,-6.078 8.134,-11.016 14.235,-14.123 6.985,-3.431 14.703,-5.1 22.481,-4.864 4.778,-0.036 9.54,0.566 14.158,1.79 4.215,1.126 8.229,2.898 11.902,5.252 3.423,2.204 6.404,5.028 8.79,8.326 l -13.613,12.256 c -2.641,-3.033 -5.905,-5.462 -9.568,-7.12 -3.568,-1.667 -7.458,-2.53 -11.396,-2.529 -3.093,-0.184 -6.191,0.263 -9.106,1.313 -2.915,1.05 -5.587,2.681 -7.852,4.795 -2.104,2.334 -3.72,5.063 -4.755,8.03 -1.035,2.966 -1.469,6.109 -1.274,9.245 v 15.912 c -0.212,3.188 0.208,6.386 1.236,9.41 1.028,3.025 2.643,5.817 4.754,8.214 2.243,2.166 4.913,3.838 7.84,4.91 2.928,1.072 6.046,1.52 9.157,1.315 4.046,0.034 8.043,-0.886 11.668,-2.684 3.7,-1.843 6.932,-4.504 9.452,-7.781 l 13.613,13.189 c -2.439,3.247 -5.443,6.028 -8.868,8.209 -3.688,2.324 -7.717,4.057 -11.941,5.136 -4.585,1.189 -9.305,1.777 -14.041,1.75 -7.879,0.3 -15.71,-1.357 -22.792,-4.824 z"
    fill="#fffff8"
    id="path20"
  />
  <path
    d="m 422.368,201.561 h 18.902 v 96.254 h -18.902 z m 46.673,18.169 c -2.81,-1.104 -5.81,-1.646 -8.829,-1.595 -2.543,-0.154 -5.09,0.208 -7.49,1.064 -2.399,0.856 -4.601,2.188 -6.473,3.916 -1.712,1.842 -3.032,4.013 -3.881,6.38 -0.849,2.367 -1.209,4.882 -1.059,7.393 l -1.944,-18.558 c 2.675,-5.39 6.694,-10 11.668,-13.384 4.577,-3.145 10.006,-4.815 15.558,-4.785 4.048,-0.064 8.076,0.581 11.902,1.906 3.466,1.201 6.644,3.109 9.335,5.602 l -12.33,16.691 c -1.726,-2.082 -3.965,-3.677 -6.495,-4.63 z"
    fill="#fffff8"
    id="path22"
  />
  <path
    d="m 518.127,294.196 c -6.232,-3.268 -11.28,-8.413 -14.43,-14.706 -3.472,-7.281 -5.165,-15.281 -4.94,-23.344 v -10.855 c -0.225,-8.381 1.395,-16.709 4.745,-24.394 2.887,-6.513 7.743,-11.956 13.886,-15.562 6.679,-3.695 14.23,-5.522 21.859,-5.291 7.324,-0.227 14.531,1.885 20.575,6.03 5.989,4.375 10.528,10.447 13.03,17.43 3.186,8.718 4.716,17.954 4.512,27.234 v 6.692 h -64.916 v -15.212 h 47.102 c -0.136,-6.586 -2.265,-12.975 -6.107,-18.325 -1.657,-2.122 -3.794,-3.82 -6.235,-4.956 -2.44,-1.137 -5.115,-1.678 -7.806,-1.58 -3.127,-0.168 -6.251,0.378 -9.136,1.598 -2.884,1.221 -5.453,3.082 -7.511,5.444 -4.257,5.694 -6.377,12.703 -5.99,19.803 v 12.255 c -0.221,3.326 0.222,6.663 1.304,9.816 1.081,3.153 2.78,6.059 4.997,8.548 2.394,2.222 5.215,3.933 8.291,5.03 3.075,1.097 6.342,1.556 9.601,1.35 3.916,-0.015 7.79,-0.808 11.396,-2.334 3.752,-1.506 7.184,-3.711 10.113,-6.497 l 12.446,12.45 c -4.647,4.509 -10.095,8.111 -16.063,10.621 -5.642,2.487 -11.727,3.81 -17.892,3.891 -7.915,0.179 -15.754,-1.584 -22.831,-5.136 z"
    fill="#fffff8"
    id="path24"
  />
  <path
    d="m 607.507,291.823 c -5.886,-4.902 -8.829,-12.372 -8.829,-22.41 -0.289,-3.937 0.282,-7.89 1.672,-11.585 1.39,-3.695 3.567,-7.043 6.379,-9.813 5.42,-4.799 13.549,-7.185 24.387,-7.159 h 27.227 l 1.283,15.212 h -28.548 c -3.978,-0.313 -7.929,0.866 -11.086,3.307 -1.298,1.31 -2.297,2.885 -2.928,4.618 -0.631,1.733 -0.88,3.582 -0.728,5.42 -0.163,2.072 0.197,4.151 1.047,6.048 0.849,1.897 2.161,3.549 3.815,4.807 4.441,2.685 9.606,3.922 14.78,3.54 5.494,0.279 10.989,-0.514 16.181,-2.334 1.527,-0.507 2.86,-1.475 3.814,-2.771 0.954,-1.296 1.483,-2.856 1.514,-4.466 l 1.945,13.54 c -1.602,2.527 -3.691,4.709 -6.145,6.419 -2.576,1.786 -5.446,3.103 -8.48,3.891 -3.548,0.881 -7.195,1.299 -10.851,1.245 -11.708,-0.156 -20.615,-2.607 -26.449,-7.509 z m 50.136,-55.052 c 0.166,-2.664 -0.195,-5.334 -1.062,-7.858 -0.868,-2.523 -2.225,-4.851 -3.995,-6.849 -1.897,-1.808 -4.149,-3.205 -6.612,-4.102 -2.463,-0.897 -5.085,-1.276 -7.701,-1.111 -3.827,-0.002 -7.632,0.589 -11.279,1.751 -3.502,1.086 -6.8,2.742 -9.763,4.902 l -13.808,-9.454 c 3.871,-4.556 8.818,-8.073 14.391,-10.232 6.335,-2.512 13.101,-3.754 19.915,-3.658 7.052,-0.193 14.053,1.245 20.458,4.202 5.505,2.627 10.048,6.913 12.991,12.256 3.125,5.995 4.652,12.695 4.434,19.453 v 61.86 h -17.969 z"
    fill="#fffff8"
    id="path26"
  />
  <path
    d="m 696.965,201.561 h 43.368 v 16.963 h -43.368 z m 15.325,90.262 c -3.982,-5.523 -5.896,-12.272 -5.406,-19.064 v -99.21 h 18.903 v 99.443 c -0.123,1.906 0.368,3.801 1.4,5.408 0.464,0.637 1.082,1.146 1.796,1.479 0.715,0.334 1.501,0.481 2.288,0.428 h 9.062 v 18.013 h -10.929 c -3.157,0.262 -6.332,-0.185 -9.293,-1.309 -2.961,-1.124 -5.633,-2.897 -7.821,-5.188 z"
    fill="#fffff8"
    id="path28"
  />
  <path
    d="m 766.315,162.966 h 18.825 v 18.909 h -18.903 z m 0,38.595 h 18.825 v 96.253 h -18.903 z"
    fill="#fffff8"
    id="path30"
  />
  <path
    d="m 870.709,201.561 h 19.759 l -36.173,96.253 h -14.274 l -36.133,-96.253 h 19.719 l 23.571,68.708 z"
    fill="#fffff8"
    id="path32"
  />
  <path
    d="m 923.61,294.196 c -6.22,-3.27 -11.259,-8.415 -14.395,-14.706 -3.485,-7.277 -5.191,-15.278 -4.978,-23.344 v -10.855 c -0.232,-8.385 1.402,-16.717 4.784,-24.394 2.885,-6.502 7.725,-11.941 13.849,-15.562 6.66,-3.621 14.16,-5.407 21.74,-5.175 7.32,-0.221 14.53,1.891 20.57,6.031 5.98,4.385 10.52,10.453 13.03,17.43 3.19,8.718 4.72,17.954 4.52,27.234 v 6.575 h -64.76 v -15.212 h 46.9 c -0.1,-6.585 -2.22,-12.98 -6.06,-18.325 -1.66,-2.17 -3.82,-3.91 -6.29,-5.074 -2.47,-1.165 -5.18,-1.719 -7.91,-1.618 -3.13,-0.168 -6.25,0.379 -9.14,1.599 -2.88,1.22 -5.45,3.082 -7.51,5.443 -4.25,5.751 -6.33,12.821 -5.87,19.959 v 12.255 c -0.22,3.326 0.22,6.663 1.3,9.816 1.08,3.153 2.78,6.059 5,8.548 2.39,2.221 5.21,3.933 8.29,5.03 3.08,1.097 6.34,1.556 9.6,1.35 3.92,-0.019 7.79,-0.812 11.4,-2.334 3.75,-1.506 7.18,-3.711 10.11,-6.497 l 12.41,12.45 c -4.64,4.508 -10.07,8.11 -16.03,10.621 -5.64,2.484 -11.72,3.807 -17.89,3.891 -7.86,0.143 -15.64,-1.619 -22.67,-5.136 z"
    fill="#fffff8"
    id="path34"
  />
  <path
    d="m 344.15,446.652 c -6.054,-3.193 -10.972,-8.181 -14.08,-14.279 -3.488,-7.001 -5.224,-14.745 -5.057,-22.565 v -15.835 c -0.184,-7.785 1.553,-15.495 5.057,-22.449 3.169,-6.068 8.143,-11.002 14.235,-14.123 6.985,-3.43 14.703,-5.099 22.481,-4.863 4.778,-0.036 9.54,0.566 14.158,1.79 4.215,1.126 8.229,2.898 11.902,5.252 3.423,2.203 6.404,5.027 8.79,8.326 l -13.613,12.255 c -2.641,-3.033 -5.905,-5.461 -9.568,-7.119 -3.568,-1.667 -7.458,-2.53 -11.396,-2.529 -3.093,-0.184 -6.191,0.262 -9.106,1.312 -2.915,1.05 -5.587,2.682 -7.852,4.796 -2.104,2.333 -3.72,5.063 -4.755,8.029 -1.035,2.966 -1.469,6.109 -1.274,9.245 v 15.913 c -0.212,3.187 0.208,6.385 1.236,9.41 1.028,3.025 2.643,5.816 4.754,8.214 2.243,2.165 4.913,3.837 7.84,4.909 2.928,1.072 6.046,1.521 9.157,1.316 4.046,0.033 8.043,-0.886 11.668,-2.684 3.7,-1.843 6.932,-4.504 9.452,-7.782 l 13.613,13.189 c -2.439,3.248 -5.443,6.029 -8.868,8.21 -3.688,2.324 -7.717,4.056 -11.941,5.135 -4.585,1.19 -9.305,1.778 -14.041,1.751 -7.879,0.3 -15.71,-1.358 -22.792,-4.824 z"
    fill="#fffff8"
    id="path36"
  />
  <path
    d="m 437.847,446.652 c -5.91,-3.247 -10.667,-8.25 -13.613,-14.318 -3.278,-7.047 -4.889,-14.755 -4.706,-22.526 v -15.563 c -0.216,-7.719 1.382,-15.382 4.667,-22.371 2.949,-6.036 7.708,-11 13.613,-14.2 6.68,-3.195 13.989,-4.853 21.393,-4.853 7.403,0 14.713,1.658 21.392,4.853 5.894,3.202 10.64,8.167 13.574,14.2 3.285,6.989 4.884,14.652 4.668,22.371 v 15.563 c 0.223,7.758 -1.376,15.46 -4.668,22.487 -2.944,6.036 -7.687,11.011 -13.574,14.24 -6.672,3.219 -13.985,4.891 -21.392,4.891 -7.408,0 -14.72,-1.672 -21.393,-4.891 z m 36.756,-19.453 c 3.882,-4.949 5.806,-11.153 5.407,-17.43 v -15.952 c 0.406,-6.253 -1.521,-12.436 -5.407,-17.352 -4.146,-3.923 -9.636,-6.11 -15.344,-6.11 -5.707,0 -11.198,2.187 -15.344,6.11 -3.9,4.911 -5.84,11.094 -5.445,17.352 v 15.991 c -0.385,6.281 1.553,12.485 5.445,17.43 4.109,3.995 9.614,6.23 15.344,6.23 5.73,0 11.235,-2.235 15.344,-6.23 z"
    fill="#fffff8"
    id="path38"
  />
  <path
    d="m 538.274,447.274 c -5.077,-3.197 -9.043,-7.885 -11.357,-13.423 -2.738,-6.698 -4.062,-13.891 -3.889,-21.125 v -21.243 c -0.159,-7.272 1.164,-14.499 3.889,-21.243 2.215,-5.505 6.09,-10.183 11.085,-13.383 5.257,-3.183 11.322,-4.778 17.464,-4.591 5.502,-0.029 10.898,1.509 15.558,4.435 4.836,3.11 8.777,7.428 11.435,12.528 l -1.945,19.647 c 0.1,-3.615 -0.66,-7.202 -2.217,-10.465 -1.409,-2.835 -3.666,-5.16 -6.456,-6.653 -3.169,-1.594 -6.685,-2.369 -10.23,-2.257 -2.699,-0.161 -5.4,0.279 -7.909,1.288 -2.509,1.009 -4.762,2.563 -6.598,4.548 -3.688,4.648 -5.53,10.495 -5.173,16.418 v 20.971 c -0.37,5.853 1.477,11.631 5.173,16.184 1.863,1.941 4.125,3.453 6.63,4.434 2.505,0.981 5.192,1.406 7.877,1.247 3.559,0.114 7.085,-0.704 10.23,-2.374 2.801,-1.55 5.056,-3.928 6.456,-6.808 1.561,-3.332 2.32,-6.983 2.217,-10.66 l 1.284,20.309 c -1.934,4.809 -5.199,8.966 -9.413,11.983 -4.695,3.292 -10.332,4.971 -16.063,4.785 -6.322,0.188 -12.571,-1.389 -18.048,-4.552 z m 42.24,-131.93 h 18.903 v 134.848 h -18.903 z"
    fill="#fffff8"
    id="path40"
  />
  <path
    d="m 644.769,446.574 c -6.232,-3.268 -11.28,-8.413 -14.43,-14.707 -3.472,-7.28 -5.165,-15.281 -4.94,-23.343 v -10.855 c -0.244,-8.383 1.377,-16.715 4.745,-24.394 2.887,-6.513 7.743,-11.956 13.886,-15.562 6.679,-3.695 14.23,-5.523 21.859,-5.292 7.324,-0.226 14.531,1.886 20.575,6.031 5.978,4.385 10.515,10.454 13.03,17.43 3.186,8.718 4.716,17.954 4.512,27.234 v 6.692 H 639.09 v -15.213 h 46.907 c -0.105,-6.584 -2.222,-12.979 -6.067,-18.324 -1.66,-2.12 -3.797,-3.816 -6.237,-4.952 -2.441,-1.136 -5.115,-1.679 -7.804,-1.585 -3.128,-0.168 -6.252,0.379 -9.137,1.599 -2.884,1.22 -5.453,3.082 -7.51,5.443 -4.251,5.752 -6.332,12.822 -5.874,19.959 v 12.256 c -0.221,3.326 0.222,6.663 1.304,9.816 1.081,3.153 2.78,6.058 4.997,8.547 2.394,2.222 5.215,3.933 8.291,5.03 3.075,1.097 6.342,1.557 9.601,1.351 3.916,-0.016 7.79,-0.809 11.396,-2.335 3.752,-1.505 7.184,-3.71 10.113,-6.497 l 12.446,12.45 c -4.647,4.509 -10.095,8.111 -16.063,10.621 -5.642,2.487 -11.727,3.81 -17.892,3.891 -7.915,0.125 -15.741,-1.692 -22.792,-5.291 z"
    fill="#fffff8"
    id="path42"
  />
</svg>
